<?xml version="1.0" encoding="utf-8"?>
<svg version="1.1" xmlns:xlink="http://www.w3.org/1999/xlink" width="12px" height="12px" viewBox="334 498  12 12" xmlns="http://www.w3.org/2000/svg">
  <path d="M 340 498  C 343.36 498  346 500.64  346 504  C 346 507.36  343.36 510  340 510  C 336.64 510  334 507.36  334 504  C 334 500.64  336.64 498  340 498  Z " fill-rule="nonzero" fill="#ffffff" stroke="none" />
  <path d="M 340 498.5  C 343.08 498.5  345.5 500.92  345.5 504  C 345.5 507.08  343.08 509.5  340 509.5  C 336.92 509.5  334.5 507.08  334.5 504  C 334.5 500.92  336.92 498.5  340 498.5  Z " stroke-width="1" stroke="#797979" fill="none" />
  <path d="M 340 507  C 338.32 507  337 505.68  337 504  C 337 502.32  338.32 501  340 501  C 341.68 501  343 502.32  343 504  C 343 505.68  341.68 507  340 507  " fill-rule="nonzero" fill="#797979" stroke="none" />
</svg>