<?xml version="1.0" encoding="utf-8"?>
<svg version="1.1" xmlns:xlink="http://www.w3.org/1999/xlink" width="12px" height="12px" viewBox="453 498  12 12" xmlns="http://www.w3.org/2000/svg">
  <path d="M 459 498  C 462.36 498  465 500.64  465 504  C 465 507.36  462.36 510  459 510  C 455.64 510  453 507.36  453 504  C 453 500.64  455.64 498  459 498  Z " fill-rule="nonzero" fill="#f0f0f0" stroke="none" />
  <path d="M 459 498.5  C 462.08 498.5  464.5 500.92  464.5 504  C 464.5 507.08  462.08 509.5  459 509.5  C 455.92 509.5  453.5 507.08  453.5 504  C 453.5 500.92  455.92 498.5  459 498.5  Z " stroke-width="1" stroke="#797979" fill="none" />
  <path d="M 459 507  C 457.32 507  456 505.68  456 504  C 456 502.32  457.32 501  459 501  C 460.68 501  462 502.32  462 504  C 462 505.68  460.68 507  459 507  " fill-rule="nonzero" fill="#797979" stroke="none" />
</svg>