<?xml version="1.0" encoding="utf-8"?>
<svg version="1.1" xmlns:xlink="http://www.w3.org/1999/xlink" width="12px" height="12px" viewBox="582 498  12 12" xmlns="http://www.w3.org/2000/svg">
  <path d="M 588 498  C 591.36 498  594 500.64  594 504  C 594 507.36  591.36 510  588 510  C 584.64 510  582 507.36  582 504  C 582 500.64  584.64 498  588 498  Z " fill-rule="nonzero" fill="#f0f0f0" stroke="none" />
  <path d="M 588 498.5  C 591.08 498.5  593.5 500.92  593.5 504  C 593.5 507.08  591.08 509.5  588 509.5  C 584.92 509.5  582.5 507.08  582.5 504  C 582.5 500.92  584.92 498.5  588 498.5  Z " stroke-width="1" stroke="#797979" fill="none" />
  <path d="M 588 507  C 586.32 507  585 505.68  585 504  C 585 502.32  586.32 501  588 501  C 589.68 501  591 502.32  591 504  C 591 505.68  589.68 507  588 507  " fill-rule="nonzero" fill="#797979" stroke="none" />
</svg>