<?xml version="1.0" encoding="utf-8"?>
<svg version="1.1" xmlns:xlink="http://www.w3.org/1999/xlink" width="12px" height="12px" viewBox="1037 562  12 12" xmlns="http://www.w3.org/2000/svg">
  <path d="M 1043 562  C 1046.36 562  1049 564.64  1049 568  C 1049 571.36  1046.36 574  1043 574  C 1039.64 574  1037 571.36  1037 568  C 1037 564.64  1039.64 562  1043 562  Z " fill-rule="nonzero" fill="#f0f0f0" stroke="none" />
  <path d="M 1043 562.5  C 1046.08 562.5  1048.5 564.92  1048.5 568  C 1048.5 571.08  1046.08 573.5  1043 573.5  C 1039.92 573.5  1037.5 571.08  1037.5 568  C 1037.5 564.92  1039.92 562.5  1043 562.5  Z " stroke-width="1" stroke="#797979" fill="none" />
  <path d="M 1043 571  C 1041.32 571  1040 569.68  1040 568  C 1040 566.32  1041.32 565  1043 565  C 1044.68 565  1046 566.32  1046 568  C 1046 569.68  1044.68 571  1043 571  " fill-rule="nonzero" fill="#797979" stroke="none" />
</svg>