<?xml version="1.0" encoding="utf-8"?>
<svg version="1.1" xmlns:xlink="http://www.w3.org/1999/xlink" width="12px" height="12px" viewBox="1037 498  12 12" xmlns="http://www.w3.org/2000/svg">
  <path d="M 1043 498  C 1046.36 498  1049 500.64  1049 504  C 1049 507.36  1046.36 510  1043 510  C 1039.64 510  1037 507.36  1037 504  C 1037 500.64  1039.64 498  1043 498  Z " fill-rule="nonzero" fill="#ffffff" stroke="none" />
  <path d="M 1043 498.5  C 1046.08 498.5  1048.5 500.92  1048.5 504  C 1048.5 507.08  1046.08 509.5  1043 509.5  C 1039.92 509.5  1037.5 507.08  1037.5 504  C 1037.5 500.92  1039.92 498.5  1043 498.5  Z " stroke-width="1" stroke="#797979" fill="none" />
  <path d="M 1043 507  C 1041.32 507  1040 505.68  1040 504  C 1040 502.32  1041.32 501  1043 501  C 1044.68 501  1046 502.32  1046 504  C 1046 505.68  1044.68 507  1043 507  " fill-rule="nonzero" fill="#797979" stroke="none" />
</svg>