<?xml version="1.0" encoding="utf-8"?>
<svg version="1.1" xmlns:xlink="http://www.w3.org/1999/xlink" width="12px" height="12px" viewBox="659 562  12 12" xmlns="http://www.w3.org/2000/svg">
  <path d="M 665 562  C 668.36 562  671 564.64  671 568  C 671 571.36  668.36 574  665 574  C 661.64 574  659 571.36  659 568  C 659 564.64  661.64 562  665 562  Z " fill-rule="nonzero" fill="#ffffff" stroke="none" />
  <path d="M 665 562.5  C 668.08 562.5  670.5 564.92  670.5 568  C 670.5 571.08  668.08 573.5  665 573.5  C 661.92 573.5  659.5 571.08  659.5 568  C 659.5 564.92  661.92 562.5  665 562.5  Z " stroke-width="1" stroke="#797979" fill="none" />
  <path d="M 665 571  C 663.32 571  662 569.68  662 568  C 662 566.32  663.32 565  665 565  C 666.68 565  668 566.32  668 568  C 668 569.68  666.68 571  665 571  " fill-rule="nonzero" fill="#797979" stroke="none" />
</svg>