<?xml version="1.0" encoding="utf-8"?>
<svg version="1.1" xmlns:xlink="http://www.w3.org/1999/xlink" width="12px" height="12px" viewBox="659 498  12 12" xmlns="http://www.w3.org/2000/svg">
  <path d="M 665 498  C 668.36 498  671 500.64  671 504  C 671 507.36  668.36 510  665 510  C 661.64 510  659 507.36  659 504  C 659 500.64  661.64 498  665 498  Z " fill-rule="nonzero" fill="#f0f0f0" stroke="none" />
  <path d="M 665 498.5  C 668.08 498.5  670.5 500.92  670.5 504  C 670.5 507.08  668.08 509.5  665 509.5  C 661.92 509.5  659.5 507.08  659.5 504  C 659.5 500.92  661.92 498.5  665 498.5  Z " stroke-width="1" stroke="#797979" fill="none" />
  <path d="M 665 507  C 663.32 507  662 505.68  662 504  C 662 502.32  663.32 501  665 501  C 666.68 501  668 502.32  668 504  C 668 505.68  666.68 507  665 507  " fill-rule="nonzero" fill="#797979" stroke="none" />
</svg>