<?xml version="1.0" encoding="utf-8"?>
<svg version="1.1" xmlns:xlink="http://www.w3.org/1999/xlink" width="12px" height="12px" viewBox="907 498  12 12" xmlns="http://www.w3.org/2000/svg">
  <path d="M 913 498  C 916.36 498  919 500.64  919 504  C 919 507.36  916.36 510  913 510  C 909.64 510  907 507.36  907 504  C 907 500.64  909.64 498  913 498  Z " fill-rule="nonzero" fill="#f0f0f0" stroke="none" />
  <path d="M 913 498.5  C 916.08 498.5  918.5 500.92  918.5 504  C 918.5 507.08  916.08 509.5  913 509.5  C 909.92 509.5  907.5 507.08  907.5 504  C 907.5 500.92  909.92 498.5  913 498.5  Z " stroke-width="1" stroke="#797979" fill="none" />
  <path d="M 913 507  C 911.32 507  910 505.68  910 504  C 910 502.32  911.32 501  913 501  C 914.68 501  916 502.32  916 504  C 916 505.68  914.68 507  913 507  " fill-rule="nonzero" fill="#797979" stroke="none" />
</svg>